<svg width="113" height="74" viewBox="0 0 113 74" fill="none" xmlns="http://www.w3.org/2000/svg">
<mask id="mask0_1832_623" style="mask-type:luminance" maskUnits="userSpaceOnUse" x="0" y="0" width="113" height="74">
<path d="M112.098 0H0V73.972H112.098V0Z" fill="white"/>
</mask>
<g mask="url(#mask0_1832_623)">
<path d="M112.099 0L75.7797 61.376L73.8407 64.651L71.5617 68.512L71.3377 68.539L60.3047 51.756L62.2757 48.406L77.3937 22.828L112.099 0Z" fill="url(#paint0_linear_1832_623)"/>
<g style="mix-blend-mode:multiply" opacity="0.16">
<path d="M75.7797 61.376L71.5617 68.511L71.3377 68.538L60.3047 51.756L62.2747 48.406C65.7047 51.676 71.4797 57.221 75.7797 61.376Z" fill="#808080"/>
</g>
<path d="M52.1813 39.4089L71.3373 68.5339L51.1683 71.17L41.7783 56.8929L52.1813 39.4089Z" fill="url(#paint1_linear_1832_623)"/>
<g style="mix-blend-mode:screen" opacity="0.3">
<path d="M112.098 0L75.7788 61.376L73.8398 64.651C73.0198 65.951 72.1778 67.251 71.3398 68.538C72.9218 65.618 74.5398 62.714 76.1618 59.811C77.7658 56.903 79.3968 54.0093 81.0548 51.13C84.3648 45.369 87.6198 39.565 90.9888 33.83C94.3218 28.082 97.7188 22.372 101.094 16.649C103.872 12.017 106.653 7.38366 109.438 2.74899C107.577 3.95899 105.719 5.149 103.833 6.328L95.0598 11.883C92.1398 13.7497 89.2065 15.586 86.2598 17.392C83.3158 19.221 80.3719 21.05 77.3969 22.832L112.098 0Z" fill="white"/>
</g>
<g style="mix-blend-mode:screen" opacity="0.3">
<path d="M52.1812 39.4089L69.7902 66.183C69.9382 66.448 70.0792 66.7039 70.2182 66.9749C69.3632 65.8999 68.5462 64.8 67.7132 63.697C66.8962 62.597 66.0532 61.497 65.2642 60.382C64.4502 59.267 63.6522 58.1549 62.8562 57.0269C62.0762 55.9029 61.2782 54.7909 60.5012 53.6509C58.9452 51.3843 57.4119 49.1056 55.9012 46.8149C54.6372 44.9349 53.4152 43.015 52.1892 41.115C50.6592 43.5816 49.1022 46.037 47.5182 48.481C46.5862 49.9 45.6692 51.3219 44.6932 52.7149C43.7332 54.1149 42.7852 55.5269 41.7812 56.8979L52.1812 39.4089Z" fill="white"/>
</g>
<g style="mix-blend-mode:screen" opacity="0.15">
<path d="M79.2777 24.117L103.632 8.60205L75.9707 55.817L79.2777 24.117Z" fill="white"/>
</g>
<g style="mix-blend-mode:screen" opacity="0.15">
<path d="M43.6592 56.938L52.2892 44.552L67.2772 66.064L43.6592 56.938Z" fill="white"/>
</g>
<path d="M0.00390625 73.9759L36.3229 12.6039L38.2619 9.32892L40.5409 5.46793L40.7649 5.44092L51.7999 22.2189L49.8289 25.5679L34.7039 51.1429L0.00390625 73.9759Z" fill="url(#paint2_linear_1832_623)"/>
<g style="mix-blend-mode:multiply" opacity="0.16">
<path d="M36.3193 12.6L40.5373 5.46402L40.7613 5.43701L51.7963 22.215L49.8253 25.565C46.3973 22.29 40.6193 16.75 36.3193 12.6Z" fill="#808080"/>
</g>
<path d="M59.9167 34.562L40.7607 5.43704L60.9287 2.80103L70.3188 17.078L59.9167 34.562Z" fill="url(#paint3_linear_1832_623)"/>
<g style="mix-blend-mode:multiply" opacity="0.16">
<path d="M0.00390625 73.9761L36.3229 12.6051L38.2619 9.33014C39.0819 8.03014 39.9229 6.73014 40.7619 5.44214C39.1789 8.36214 37.5619 11.2661 35.9399 14.1701C34.3359 17.0775 32.7049 19.9708 31.0469 22.8501C27.7369 28.6111 24.4819 34.4151 21.1119 40.1501C17.7799 45.8981 14.3829 51.6081 11.0069 57.3311C8.2289 61.9631 5.44791 66.5965 2.66391 71.2311C4.52491 70.0211 6.38289 68.8311 8.26889 67.6531L17.0419 62.0971C19.9612 60.2305 22.8946 58.3941 25.8419 56.5881C28.7859 54.7591 31.7299 52.9301 34.7049 51.1481L0.00390625 73.9761Z" fill="#808080"/>
</g>
<g style="mix-blend-mode:multiply" opacity="0.3">
<path d="M59.917 34.5621L42.304 7.78809C42.157 7.52309 42.015 7.26709 41.877 6.99609C42.732 8.07109 43.549 9.17111 44.377 10.2741C45.194 11.3741 46.036 12.4741 46.826 13.5891C47.64 14.7041 48.4379 15.8161 49.2339 16.9431C50.0129 18.0681 50.812 19.1801 51.588 20.3201C53.1453 22.5868 54.6786 24.8654 56.188 27.1561C57.452 29.0361 58.674 30.9561 59.9 32.8561C61.43 30.3894 62.9866 27.9341 64.5699 25.4901C65.5029 24.0711 66.42 22.6491 67.395 21.2561C68.37 19.8631 69.304 18.4441 70.307 17.0731L59.917 34.5621Z" fill="#808080"/>
</g>
<g style="mix-blend-mode:screen" opacity="0.3">
<path d="M32.8198 49.854L8.4668 65.369L36.1268 18.1541C36.1268 18.1541 36.1138 18.747 32.8198 49.854Z" fill="white"/>
</g>
<g style="mix-blend-mode:screen" opacity="0.2">
<path d="M68.4374 17.033L59.8034 29.419L44.8154 7.90698L68.4374 17.033Z" fill="white"/>
</g>
</g>
<defs>
<linearGradient id="paint0_linear_1832_623" x1="172.387" y1="359.556" x2="244.122" y2="359.556" gradientUnits="userSpaceOnUse">
<stop offset="1" stop-color="#4A4742"/>
</linearGradient>
<linearGradient id="paint1_linear_1832_623" x1="163.236" y1="342.727" x2="163.236" y2="374.202" gradientUnits="userSpaceOnUse">
<stop offset="1" stop-color="#4A4742"/>
</linearGradient>
<linearGradient id="paint2_linear_1832_623" x1="-1318.31" y1="302.129" x2="-1246.57" y2="302.129" gradientUnits="userSpaceOnUse">
<stop offset="1" stop-color="#9A8E77"/>
</linearGradient>
<linearGradient id="paint3_linear_1832_623" x1="-1327.45" y1="285.315" x2="-1327.45" y2="316.79" gradientUnits="userSpaceOnUse">
<stop offset="1" stop-color="#9A8E77"/>
</linearGradient>
</defs>
</svg>
